HIERARCHY
ROOT hip
{
	OFFSET	0.00  0.00  0.00 
	CHANNELS 6 Xposition Yposition Zposition Xrotation Zrotation Yrotation
	JOINT abdomen
	{
		OFFSET	0.000000 0.000000 0.000000
		CHANNELS 3 Xrotation Zrotation Yrotation
		JOINT chest
		{
			OFFSET	0.000000 5.018152 -1.882228
			CHANNELS 3 Xrotation Zrotation Yrotation
			JOINT neckDummy
			{
				OFFSET	0.000000 8.316447 0.784897
				CHANNELS 3 Xrotation Yrotation Zrotation
				JOINT neck
				{
					OFFSET	0.000000 2.280413 -0.392801
					CHANNELS 3 Xrotation Zrotation Yrotation
					JOINT head
					{
						OFFSET	0.000000 3.496879 0.529469
						CHANNELS 3 Xrotation Zrotation Yrotation
						JOINT figureHair
						{
							OFFSET	0.000000 4.699570 0.720622
							CHANNELS 3 Zrotation Yrotation Xrotation
							End Site
							{
								OFFSET 0.000000 -6.419331 0.000000
							}
						}
					}
				}
			}
			JOINT lCollar
			{
				OFFSET	0.599237 8.316447 0.784897
				CHANNELS 3 Yrotation Zrotation Xrotation
				JOINT lShldr
				{
					OFFSET	6.421198 0.010146 -0.332128
					CHANNELS 3 Zrotation Yrotation Xrotation
					JOINT lForeArm
					{
						OFFSET	10.552783 0.025574 0.125508
						CHANNELS 3 Yrotation Zrotation Xrotation
						JOINT lHand
						{
							OFFSET	11.035963 0.319619 0.041520
							CHANNELS 3 Zrotation Yrotation Xrotation
							End Site
							{
								OFFSET 10.353753 0.000000 0.000000
							}
						}
					}
				}
			}
			JOINT rCollar
			{
				OFFSET	-0.599237 8.316447 0.784897
				CHANNELS 3 Yrotation Zrotation Xrotation
				JOINT rShldr
				{
					OFFSET	-6.421198 0.010146 -0.332128
					CHANNELS 3 Zrotation Yrotation Xrotation
					JOINT rForeArm
					{
						OFFSET	-10.552783 0.025574 0.125508
						CHANNELS 3 Yrotation Zrotation Xrotation
						JOINT rHand
						{
							OFFSET	-11.035963 0.319619 0.041520
							CHANNELS 3 Zrotation Yrotation Xrotation
							End Site
							{
								OFFSET -10.353753 0.000000 0.000000
							}
						}
					}
				}
			}
		}
	}
	JOINT lThigh
	{
		OFFSET	4.500466 -6.400484 -1.832696
		CHANNELS 3 Xrotation Zrotation Yrotation
		JOINT lShin
		{
			OFFSET	-1.359117 -18.918689 1.179887
			CHANNELS 3 Xrotation Zrotation Yrotation
			JOINT lFoot
			{
				OFFSET	-0.652380 -17.215186 -0.312137
				CHANNELS 3 Xrotation Yrotation Zrotation
				End Site
				{
					OFFSET 0.000000 0.000000 10.353752
				}
			}
		}
	}
	JOINT rThigh
	{
		OFFSET	-4.500466 -6.400484 -1.832696
		CHANNELS 3 Xrotation Zrotation Yrotation
		JOINT rShin
		{
			OFFSET	1.359117 -18.918689 1.179887
			CHANNELS 3 Xrotation Zrotation Yrotation
			JOINT rFoot
			{
				OFFSET	0.652380 -17.215186 -0.312137
				CHANNELS 3 Xrotation Yrotation Zrotation
				End Site
				{
					OFFSET 0.000000 0.000000 10.353752
				}
			}
		}
	}
}
MOTION
Frames:     6
Frame Time: 0.050000
0.787976 39.173592 2.255986 -9.556766 -19.871016 70.294655 -13.629158 3.476571 -11.986239 -6.825667 -9.613485 -10.802161 0.000000 0.000000 0.000000 28.927900 0.000000 0.000000 -14.761353 19.555988 -45.593239 0.000000 0.000000 0.000000 1.513507 -5.127083 -0.147792 -66.968971 8.657944 16.418798 -24.623775 1.151521 0.040369 5.969490 -0.173112 0.175734 -1.041050 7.453510 -1.747956 35.840038 -38.617619 39.872807 49.822197 46.881149 -71.488159 -52.719955 -10.964789 2.785625 -46.246376 18.223923 -12.493765 42.415401 -3.898248 -3.634279 -21.610228 -31.067543 -8.012107 -17.299458 20.504663 -6.572688 13.682185 3.077682 0.481553 -34.013027 -64.096100 -22.627968 
1.148138 39.084358 2.214418 -10.763193 -23.957779 73.862427 -13.577565 3.391219 -11.920363 -6.979659 -9.591267 -10.747435 0.000000 0.000000 0.000000 28.918848 0.000000 0.000000 -16.170919 22.276754 -48.206863 0.000000 0.000000 0.000000 1.382235 -4.978355 -0.170069 -66.184334 8.315421 16.525784 -25.205183 3.753729 0.010386 5.969490 -0.173112 0.175734 -1.078822 7.710824 -1.744732 40.431164 -38.115776 39.627789 74.223869 46.951984 -75.611794 -40.861568 -10.786182 -4.982466 -51.050667 19.305632 -14.674044 41.966473 -3.872768 -3.578913 -21.558397 -31.481920 -8.571918 -19.315582 23.108948 -7.546909 8.967989 2.879734 0.006256 -33.327106 -65.957199 -24.115032 
1.308676 39.044312 2.196077 -11.302217 -25.751461 75.323647 -13.554278 3.353214 -11.892343 -7.048543 -9.582417 -10.723948 0.000000 0.000000 0.000000 28.913807 0.000000 0.000000 -16.796759 23.491058 -49.440739 0.000000 0.000000 0.000000 1.323718 -4.912035 -0.180003 -65.834732 8.162725 16.573448 -25.464611 4.913034 -0.002995 5.969490 -0.173112 0.175734 -1.095783 7.826337 -1.743326 44.020088 -37.902874 39.523251 86.757950 46.986042 -82.429733 -24.833004 -10.710467 -15.497355 -53.581421 19.701441 -15.769694 41.897812 -3.868220 -3.581403 -21.042631 -30.383410 -8.729285 -20.751783 24.181561 -8.246395 7.343128 2.796594 -0.159114 -32.920765 -66.577454 -24.740042 
1.243707 39.060455 2.203541 -11.084389 -25.053074 74.461578 -13.563619 3.368590 -11.903989 -7.020716 -9.586237 -10.733640 0.000000 0.000000 0.000000 28.915600 0.000000 0.000000 -16.542900 23.000000 -49.127834 0.000000 0.000000 0.000000 1.347399 -4.938868 -0.175984 -65.976242 8.224515 16.554142 -25.359694 4.443703 0.002416 5.969490 -0.173112 0.175734 -1.088958 7.779841 -1.743901 45.780525 -37.992012 39.566856 84.649055 46.972874 -92.235260 -10.103493 -10.741996 -25.385601 -52.567516 19.726250 -15.380273 42.015175 -3.872689 -3.592492 -21.112020 -29.955894 -8.575040 -20.044035 23.861929 -7.897899 7.999796 2.820200 -0.096997 -32.805344 -66.144051 -24.161217 
1.243703 39.060459 2.203537 -11.084400 -25.053101 74.461601 -13.563600 3.368590 -11.904000 -7.020720 -9.586240 -10.733600 0.000000 0.000000 0.000000 28.915600 0.000000 0.000000 -16.542900 23.000000 -49.127800 0.000000 0.000000 0.000000 1.347400 -4.938870 -0.175984 -65.976196 8.224510 16.554100 -25.359699 4.443700 0.002416 5.969490 -0.173112 0.175734 -1.088960 7.779840 -1.743900 45.780499 -37.992001 39.566898 84.649101 46.972900 -92.235298 -10.103500 -10.742000 -25.385599 -52.567513 19.726248 -15.380271 42.015175 -3.872689 -3.592492 -21.106283 -29.935057 -8.572139 -20.044035 23.861931 -7.897899 7.999796 2.820200 -0.096997 -32.805344 -66.144051 -24.161217 
1.258175 39.056580 2.202070 -11.133962 -25.210600 74.653999 -13.561504 3.365498 -11.902894 -7.027333 -9.586553 -10.732602 0.000000 0.000000 0.000000 28.914516 0.000000 0.000000 -16.597473 23.111042 -48.516155 0.000000 0.000000 0.000000 1.342107 -4.932866 -0.176884 -65.944588 8.210692 16.558393 -25.383236 4.548414 0.001202 5.969490 -0.173112 0.175734 -1.090409 7.789723 -1.743820 42.628262 -37.972706 39.557461 76.713013 46.977615 -77.976303 -6.491636 -10.739140 -24.221395 -52.726196 19.745035 -15.447895 42.006073 -3.863082 -3.588237 -21.227150 -30.261450 -8.639828 -20.123480 23.941328 -7.947630 7.854767 2.820668 -0.115891 -32.874378 -66.243904 -24.267796 
